<?xml version="1.0" encoding="UTF-8"?><svg xmlns="http://www.w3.org/2000/svg" viewBox="0 0 112.92 112.92"><defs><style>.d{fill:#051c2c;fill-rule:evenodd;}</style></defs><g id="a"/><g id="b"><g id="c"><g><path class="d" d="M99.27,53.86c-4.76,2.3-12.22,5.65-16.27,7.22-.8,.35-.83-.09-.87-.56-.66-9-1.66-10.15-8.45-11.86-6.1-1.82-15.49-2.65-20.94-1.48-2.79,.6-2.07,1.88-1.71,2.19,1,.9,.86,.81,4.08,.45,5.8-.66,22.34,.28,23.19,5.21,1.08,6.65,1.68,13.36,1.81,20.09,0,1,.06,1-1.67,1.11-11.73,.73-16.37,4.18-19.39,5.71-2.93,1.36-2.5,1.19-5.75-.5-2.8-1.54-6.73-4.45-18.71-5.21l-.86-.05c-.68-.06-.67-.27-.64-.85,.43-5.95,.82-10,.91-12.83l.51-7.31c.09-1.28,2.88-1.4,4-2.95,.7-.94,.4-1.9-1.35-1.66-.69,.11-1.37,.32-2,.63-1.19,.68-2.27,1.53-3.22,2.52-.94,1.27-1.29,5.23-1.38,7.17-.1,2.31-6.49-2.49-17.1-7.41-2.9-1.32-2.37-2.69-.17-3.73,1.26-.59,2.2-1,2.43-1.11,4.29-1.93,20.16-9.36,24.89-11.57,1.13-.6,.9-.08,.92,.34s0,.88-.07,1.25c-.36,3.9-1.85,3-2.21,5.93-.7,5.59,3.78,1.58,2.54,9.8-.27,3.83-1.94,7.43-1.83,10.82v.51c0,.56,.22,.51,.36,.51l7.55,.07c.15-.01,.27-.14,.28-.29v-.3c-.22-3.59-2.87-7.44-3.05-11-1.07-8.8,3-4.74,2.6-10-.69-4.43-2.49-2-2.9-7.3,0-.15-.05-.5-.05-.89,0-.66,.15-1.47,.76-1.75,1.78-.84,7.85-3.72,8.62-4.06,2-.89,2.34-.86,4.67,.13,7.54,3.52,30.07,13.82,40.51,18.81,2.57,.99,3.09,2.66-.04,4.2Z"/><path class="d" d="M56.49,0c31.18,.02,56.45,25.31,56.43,56.49-.02,31.18-25.31,56.45-56.49,56.43C25.26,112.9,0,87.62,0,56.45,0,25.27,25.27,0,56.45,0h.04Zm0,7.7c26.93,0,48.77,21.83,48.78,48.76,0,26.93-21.83,48.77-48.76,48.78S7.74,83.41,7.73,56.48c0-.01,0-.02,0-.03,.01-26.92,21.84-48.74,48.76-48.75h0Z"/></g></g></g></svg>